<?xml version="1.0" encoding="UTF-8" standalone="no"?>
<svg
   xmlns:dc="http://purl.org/dc/elements/1.1/"
   xmlns:cc="http://creativecommons.org/ns#"
   xmlns:rdf="http://www.w3.org/1999/02/22-rdf-syntax-ns#"
   xmlns:svg="http://www.w3.org/2000/svg"
   xmlns="http://www.w3.org/2000/svg"
   xmlns:sodipodi="http://sodipodi.sourceforge.net/DTD/sodipodi-0.dtd"
   xmlns:inkscape="http://www.inkscape.org/namespaces/inkscape"
   width="400"
   height="400"
   viewBox="0 0 105.83333 105.83334"
   version="1.1"
   id="svg8"
   inkscape:version="1.0.1 (c497b03c, 2020-09-10)"
   sodipodi:docname="objectives.svg"
   inkscape:export-filename="/Users/maxiyengar/Documents/Computer Science/Coursework/Images/objectives/panda.png"
   inkscape:export-xdpi="96"
   inkscape:export-ydpi="96">
  <defs
     id="defs2">
    <inkscape:path-effect
       effect="powerclip"
       id="path-effect129"
       is_visible="true"
       lpeversion="1"
       inverse="true"
       flatten="false"
       hide_clip="false"
       message="Use fill-rule evenodd on &lt;b&gt;fill and stroke&lt;/b&gt; dialog if no flatten result after convert clip to paths." />
    <inkscape:path-effect
       effect="powerclip"
       id="path-effect120"
       is_visible="true"
       lpeversion="1"
       inverse="true"
       flatten="false"
       hide_clip="false"
       message="Use fill-rule evenodd on &lt;b&gt;fill and stroke&lt;/b&gt; dialog if no flatten result after convert clip to paths." />
    <inkscape:path-effect
       effect="powerclip"
       id="path-effect111"
       is_visible="true"
       lpeversion="1"
       inverse="true"
       flatten="false"
       hide_clip="false"
       message="Use fill-rule evenodd on &lt;b&gt;fill and stroke&lt;/b&gt; dialog if no flatten result after convert clip to paths." />
    <inkscape:path-effect
       effect="powerclip"
       id="path-effect105"
       is_visible="true"
       lpeversion="1"
       inverse="true"
       flatten="false"
       hide_clip="false"
       message="Use fill-rule evenodd on &lt;b&gt;fill and stroke&lt;/b&gt; dialog if no flatten result after convert clip to paths." />
    <clipPath
       clipPathUnits="userSpaceOnUse"
       id="clipPath70">
      <rect
         style="fill:#ff5555;stroke-width:7.56433"
         id="rect72"
         width="16.82202"
         height="15.595815"
         x="49.543213"
         y="76.622917"
         rx="3.4821813" />
    </clipPath>
    <clipPath
       clipPathUnits="userSpaceOnUse"
       id="clipPath89">
      <g
         inkscape:label="Clip"
         id="use91"
         clip-path="none">
        <path
           style="fill:#ff5555;stroke-width:9.565"
           id="path95"
           width="26.897131"
           height="15.595864"
           x="39.468102"
           y="76.622917"
           rx="2.6869099"
           sodipodi:type="rect"
           clip-path="url(#clipPath70)"
           transform="matrix(1.2959799,0,0,1,-19.642774,0)"
           d="m 42.155011,76.622917 h 21.523312 c 1.488548,0 2.686909,1.198362 2.686909,2.68691 v 10.222045 c 0,1.488548 -1.198361,2.686909 -2.686909,2.686909 H 42.155011 c -1.488548,0 -2.686909,-1.198361 -2.686909,-2.686909 V 79.309827 c 0,-1.488548 1.198361,-2.68691 2.686909,-2.68691 z" />
      </g>
    </clipPath>
    <clipPath
       clipPathUnits="userSpaceOnUse"
       id="clipPath101">
      <rect
         style="display:none;fill:#ff5555;stroke-width:8.78316"
         id="rect103"
         width="22.679642"
         height="15.595815"
         x="43.685589"
         y="76.622917"
         rx="3.4821813"
         d="m 47.16777,76.622917 h 15.715279 c 1.929129,0 3.482182,1.553053 3.482182,3.482181 v 8.631453 c 0,1.929128 -1.553053,3.482181 -3.482182,3.482181 H 47.16777 c -1.929128,0 -3.482181,-1.553053 -3.482181,-3.482181 v -8.631453 c 0,-1.929128 1.553053,-3.482181 3.482181,-3.482181 z" />
      <path
         id="lpe_path-effect105"
         style="fill:#ff5555;stroke-width:8.78316"
         class="powerclip"
         d="m 34.468102,71.622917 h 36.89713 v 25.595815 h -36.89713 z m 12.699668,5 c -1.929128,0 -3.482181,1.553053 -3.482181,3.482181 v 8.631453 c 0,1.929128 1.553053,3.482181 3.482181,3.482181 h 15.715279 c 1.929129,0 3.482182,-1.553053 3.482182,-3.482181 v -8.631453 c 0,-1.929128 -1.553053,-3.482181 -3.482182,-3.482181 z" />
    </clipPath>
    <clipPath
       clipPathUnits="userSpaceOnUse"
       id="clipath_lpe_path-effect111">
      <rect
         style="display:none;fill:#ff5555;stroke-width:8.78316"
         id="rect113"
         width="22.679642"
         height="15.595815"
         x="43.685589"
         y="76.622917"
         rx="3.4821813"
         d="m 47.16777,76.622917 h 15.715279 c 1.929129,0 3.482182,1.553053 3.482182,3.482181 v 8.631453 c 0,1.929128 -1.553053,3.482181 -3.482182,3.482181 H 47.16777 c -1.929128,0 -3.482181,-1.553053 -3.482181,-3.482181 v -8.631453 c 0,-1.929128 1.553053,-3.482181 3.482181,-3.482181 z" />
      <path
         id="lpe_path-effect111"
         style="fill:#ff5555;stroke-width:8.78316"
         class="powerclip"
         d="m 34.468102,71.622917 h 36.89713 v 25.595815 h -36.89713 z m 12.699668,5 c -1.929128,0 -3.482181,1.553053 -3.482181,3.482181 v 8.631453 c 0,1.929128 1.553053,3.482181 3.482181,3.482181 h 15.715279 c 1.929129,0 3.482182,-1.553053 3.482182,-3.482181 v -8.631453 c 0,-1.929128 -1.553053,-3.482181 -3.482182,-3.482181 z" />
    </clipPath>
    <clipPath
       clipPathUnits="userSpaceOnUse"
       id="clipath_lpe_path-effect120">
      <rect
         style="display:none;fill:#ff5555;stroke-width:8.78316"
         id="rect122"
         width="22.679642"
         height="15.595815"
         x="43.685589"
         y="76.622917"
         rx="3.4821813"
         d="m 47.16777,76.622917 h 15.715279 c 1.929129,0 3.482182,1.553053 3.482182,3.482181 v 8.631453 c 0,1.929128 -1.553053,3.482181 -3.482182,3.482181 H 47.16777 c -1.929128,0 -3.482181,-1.553053 -3.482181,-3.482181 v -8.631453 c 0,-1.929128 1.553053,-3.482181 3.482181,-3.482181 z" />
      <path
         id="lpe_path-effect120"
         style="fill:#ff5555;stroke-width:8.78316"
         class="powerclip"
         d="m 34.468102,71.622917 h 36.89713 v 25.595815 h -36.89713 z m 12.699668,5 c -1.929128,0 -3.482181,1.553053 -3.482181,3.482181 v 8.631453 c 0,1.929128 1.553053,3.482181 3.482181,3.482181 h 15.715279 c 1.929129,0 3.482182,-1.553053 3.482182,-3.482181 v -8.631453 c 0,-1.929128 -1.553053,-3.482181 -3.482182,-3.482181 z" />
    </clipPath>
    <clipPath
       clipPathUnits="userSpaceOnUse"
       id="clipath_lpe_path-effect129">
      <rect
         style="display:none;fill:#ff5555;stroke-width:8.78316"
         id="rect131"
         width="22.679642"
         height="15.595815"
         x="43.685589"
         y="76.622917"
         rx="3.4821813"
         d="m 47.16777,76.622917 h 15.715279 c 1.929129,0 3.482182,1.553053 3.482182,3.482181 v 8.631453 c 0,1.929128 -1.553053,3.482181 -3.482182,3.482181 H 47.16777 c -1.929128,0 -3.482181,-1.553053 -3.482181,-3.482181 v -8.631453 c 0,-1.929128 1.553053,-3.482181 3.482181,-3.482181 z" />
      <path
         id="lpe_path-effect129"
         style="fill:#ff5555;stroke-width:8.78316"
         class="powerclip"
         d="m 34.468102,71.622917 h 36.89713 v 25.595815 h -36.89713 z m 12.699668,5 c -1.929128,0 -3.482181,1.553053 -3.482181,3.482181 v 8.631453 c 0,1.929128 1.553053,3.482181 3.482181,3.482181 h 15.715279 c 1.929129,0 3.482182,-1.553053 3.482182,-3.482181 v -8.631453 c 0,-1.929128 -1.553053,-3.482181 -3.482182,-3.482181 z" />
    </clipPath>
  </defs>
  <sodipodi:namedview
     id="base"
     pagecolor="#ffffff"
     bordercolor="#666666"
     borderopacity="1.0"
     inkscape:pageopacity="0.0"
     inkscape:pageshadow="2"
     inkscape:zoom="1.5757622"
     inkscape:cx="255.06375"
     inkscape:cy="198.68864"
     inkscape:document-units="mm"
     inkscape:current-layer="layer3"
     inkscape:document-rotation="0"
     showgrid="false"
     units="px"
     inkscape:window-width="1440"
     inkscape:window-height="847"
     inkscape:window-x="0"
     inkscape:window-y="25"
     inkscape:window-maximized="0" />
  <metadata
     id="metadata5">
    <rdf:RDF>
      <cc:Work
         rdf:about="">
        <dc:format>image/svg+xml</dc:format>
        <dc:type
           rdf:resource="http://purl.org/dc/dcmitype/StillImage" />
        <dc:title></dc:title>
      </cc:Work>
    </rdf:RDF>
  </metadata>
  <g
     inkscape:label="Layer 1"
     inkscape:groupmode="layer"
     id="layer1"
     style="display:none">
    <rect
       style="fill:#80b3ff;stroke-width:9.565"
       id="rect10"
       width="105.83334"
       height="105.83334"
       x="0"
       y="0" />
    <g
       id="g25"
       transform="matrix(1.0716944,0,0,1.0716944,-4.3538691,8.1039089)">
      <path
         sodipodi:type="star"
         style="fill:#0066ff;stroke-width:9.565"
         id="path14"
         sodipodi:sides="6"
         sodipodi:cx="53.568233"
         sodipodi:cy="26.445078"
         sodipodi:r1="17.754219"
         sodipodi:r2="15.375605"
         sodipodi:arg1="0.52359878"
         sodipodi:arg2="1.0471976"
         inkscape:flatsided="true"
         inkscape:rounded="0"
         inkscape:randomized="0"
         d="m 68.943838,35.322187 -15.375605,8.87711 -15.375604,-8.87711 0,-17.754219 15.375605,-8.8771092 15.375604,8.8771092 z" />
      <path
         sodipodi:type="star"
         style="fill:#0066ff;stroke-width:9.565"
         id="path18"
         sodipodi:sides="6"
         sodipodi:cx="35.712154"
         sodipodi:cy="57.184654"
         sodipodi:r1="17.754219"
         sodipodi:r2="15.375605"
         sodipodi:arg1="0.52359878"
         sodipodi:arg2="1.0471976"
         inkscape:flatsided="true"
         inkscape:rounded="0"
         inkscape:randomized="0"
         d="m 51.087759,66.061764 -15.375605,8.877109 -15.375604,-8.877109 0,-17.754219 15.375604,-8.87711 15.375605,8.87711 z" />
      <path
         sodipodi:type="star"
         style="fill:#0066ff;stroke-width:9.565"
         id="path20"
         sodipodi:sides="6"
         sodipodi:cx="71.166328"
         sodipodi:cy="57.184654"
         sodipodi:r1="17.754219"
         sodipodi:r2="15.375605"
         sodipodi:arg1="0.52359878"
         sodipodi:arg2="1.0471976"
         inkscape:flatsided="true"
         inkscape:rounded="0"
         inkscape:randomized="0"
         d="m 86.541933,66.061764 -15.375605,8.877109 -15.375604,-8.877109 0,-17.754219 15.375605,-8.87711 15.375604,8.87711 z" />
    </g>
  </g>
  <g
     inkscape:groupmode="layer"
     id="layer2"
     inkscape:label="Layer 2"
     style="display:none">
    <rect
       style="fill:#ff8080;stroke-width:9.565"
       id="rect28"
       width="105.83334"
       height="105.83334"
       x="0"
       y="0" />
    <rect
       style="fill:#ff5555;stroke-width:9.565"
       id="rect30"
       width="26.897131"
       height="15.595815"
       x="39.468102"
       y="76.622917"
       rx="3.4822724" />
    <rect
       style="fill:#ff5555;stroke-width:9.565"
       id="rect36"
       width="26.897131"
       height="15.595815"
       x="39.468102"
       y="59.160419"
       rx="3.4822724" />
    <rect
       style="fill:#ff5555;stroke-width:9.565"
       id="rect38"
       width="26.897131"
       height="15.595815"
       x="39.468102"
       y="41.697914"
       rx="3.4822724" />
    <rect
       style="fill:#ff5555;stroke-width:9.565"
       id="rect40"
       width="26.897131"
       height="15.595815"
       x="39.468102"
       y="24.235413"
       rx="3.4822724" />
    <path
       style="fill:#ffaaaa;stroke-width:9.565"
       id="rect82"
       width="26.897131"
       height="15.595815"
       x="39.468102"
       y="76.622917"
       rx="3.4822724"
       clip-path="url(#clipPath101)"
       inkscape:path-effect="#path-effect105"
       d="M 42.950374,76.622917 H 62.88296 c 1.929179,0 3.482272,1.553094 3.482272,3.482273 v 8.631269 c 0,1.929179 -1.553093,3.482273 -3.482272,3.482273 H 42.950374 c -1.929179,0 -3.482272,-1.553094 -3.482272,-3.482273 V 80.10519 c 0,-1.929179 1.553093,-3.482273 3.482272,-3.482273 z"
       sodipodi:type="rect" />
    <path
       style="fill:#ffaaaa;stroke-width:9.565"
       id="path109"
       width="26.897131"
       height="15.595815"
       x="39.468102"
       y="76.622917"
       rx="3.4822724"
       clip-path="url(#clipath_lpe_path-effect111)"
       inkscape:path-effect="#path-effect111"
       d="M 42.950374,76.622917 H 62.88296 c 1.929179,0 3.482272,1.553094 3.482272,3.482273 v 8.631269 c 0,1.929179 -1.553093,3.482273 -3.482272,3.482273 H 42.950374 c -1.929179,0 -3.482272,-1.553094 -3.482272,-3.482273 V 80.10519 c 0,-1.929179 1.553093,-3.482273 3.482272,-3.482273 z"
       sodipodi:type="rect"
       transform="translate(0,-17.462501)" />
    <path
       style="fill:#ffaaaa;stroke-width:9.565"
       id="path118"
       width="26.897131"
       height="15.595815"
       x="39.468102"
       y="76.622917"
       rx="3.4822724"
       clip-path="url(#clipath_lpe_path-effect120)"
       inkscape:path-effect="#path-effect120"
       d="M 42.950374,76.622917 H 62.88296 c 1.929179,0 3.482272,1.553094 3.482272,3.482273 v 8.631269 c 0,1.929179 -1.553093,3.482273 -3.482272,3.482273 H 42.950374 c -1.929179,0 -3.482272,-1.553094 -3.482272,-3.482273 V 80.10519 c 0,-1.929179 1.553093,-3.482273 3.482272,-3.482273 z"
       sodipodi:type="rect"
       transform="translate(0,-34.925003)" />
    <path
       style="fill:#ffaaaa;stroke-width:9.565"
       id="path127"
       width="26.897131"
       height="15.595815"
       x="39.468102"
       y="76.622917"
       rx="3.4822724"
       clip-path="url(#clipath_lpe_path-effect129)"
       inkscape:path-effect="#path-effect129"
       d="M 42.950374,76.622917 H 62.88296 c 1.929179,0 3.482272,1.553094 3.482272,3.482273 v 8.631269 c 0,1.929179 -1.553093,3.482273 -3.482272,3.482273 H 42.950374 c -1.929179,0 -3.482272,-1.553094 -3.482272,-3.482273 V 80.10519 c 0,-1.929179 1.553093,-3.482273 3.482272,-3.482273 z"
       sodipodi:type="rect"
       transform="translate(0,-52.387505)" />
  </g>
  <g
     inkscape:groupmode="layer"
     id="layer3"
     inkscape:label="Layer 3">
    <rect
       style="fill:#aa87de;stroke-width:9.565"
       id="rect204"
       width="105.83334"
       height="105.83334"
       x="0"
       y="0" />
    <g
       id="g220"
       transform="translate(0,-6.0994973)">
      <ellipse
         style="fill:#7137c8;stroke-width:9.565"
         id="path206"
         cx="52.916668"
         cy="62.498798"
         rx="34.570919"
         ry="21.28484" />
      <g
         id="g214"
         transform="translate(-1.5833696,12.700002)">
        <ellipse
           style="fill:#7137c8;stroke-width:9.565"
           id="path208"
           cx="30.097034"
           cy="30.368179"
           rx="8.4360352"
           ry="8.8194914" />
        <ellipse
           style="fill:#7137c8;stroke-width:9.565"
           id="ellipse210"
           cx="78.903038"
           cy="30.368179"
           rx="8.4360352"
           ry="8.8194914" />
      </g>
    </g>
    <g
       id="g1053"
       transform="translate(5.0614777,-21.166667)">
      <path
         style="fill:none;stroke:#c6afe9;stroke-width:1.565;stroke-linecap:butt;stroke-linejoin:miter;stroke-miterlimit:4;stroke-dasharray:none;stroke-opacity:1"
         d="m 34.37679,86.766224 c 0,0 3.638376,7.781758 13.478399,7.781758"
         id="path224" />
      <path
         style="fill:none;stroke:#c6afe9;stroke-width:1.565;stroke-linecap:butt;stroke-linejoin:miter;stroke-miterlimit:4;stroke-dasharray:none;stroke-opacity:1"
         d="m 61.333588,86.766224 c 0,0 -3.638376,7.781758 -13.478399,7.781758"
         id="path226" />
    </g>
  </g>
</svg>
